<svg width="77" height="90" viewBox="0 0 77 90" fill="none" xmlns="http://www.w3.org/2000/svg">
<path fill-rule="evenodd" clip-rule="evenodd" d="M76.5079 4.07247C76.5079 6.32163 74.6846 8.14494 72.4354 8.14494H4.43612C2.18695 8.14494 0.363647 6.32163 0.363647 4.07247C0.363647 1.82331 2.18695 0 4.43612 0H72.4354C74.6846 0 76.5079 1.82331 76.5079 4.07247Z" fill="white"/>
<path fill-rule="evenodd" clip-rule="evenodd" d="M76.5079 85.9274C76.5079 88.1766 74.6846 89.9999 72.4354 89.9999H4.43612C2.18695 89.9999 0.363647 88.1766 0.363647 85.9274C0.363647 83.6783 2.18695 81.855 4.43612 81.855H72.4354C74.6846 81.855 76.5079 83.6783 76.5079 85.9274Z" fill="white"/>
<path fill-rule="evenodd" clip-rule="evenodd" d="M4.57 0.186172C7.09394 0.186172 9.14 2.23224 9.14 4.75618L9.14 84.7562C9.14 87.2801 7.09394 89.3262 4.57 89.3262C2.04606 89.3262 0 87.2801 0 84.7562L0 4.75617C0 2.23223 2.04606 0.186172 4.57 0.186172Z" fill="white"/>
<path d="M47.002 4.07251L15.5925 44.0482L47.002 86.8794" stroke="white" stroke-width="8"/>
</svg>
