<svg width="36" height="37" viewBox="0 0 36 37" fill="none" xmlns="http://www.w3.org/2000/svg">
<g clip-path="url(#clip0_331_96)">
<path fill-rule="evenodd" clip-rule="evenodd" d="M21.9905 0.677309C22.2119 0.951371 22.325 1.32113 22.551 2.06079L27.4876 18.2187C25.6333 17.2599 23.6431 16.5886 21.5856 16.2278L18.3713 5.40544C18.3457 5.31912 18.2927 5.24338 18.2203 5.18956C18.1479 5.13573 18.0599 5.10671 17.9696 5.10684C17.8792 5.10696 17.7913 5.13623 17.7191 5.19026C17.6468 5.24428 17.594 5.32017 17.5686 5.40656L14.3933 16.2224C12.3265 16.5814 10.3272 17.2538 8.46472 18.2162L13.4255 2.05715C13.6522 1.31875 13.7656 0.94969 13.9872 0.676048C14.1828 0.434524 14.4372 0.246931 14.7262 0.131146C15.0536 0 15.4411 0 16.2161 0H19.7593C20.5353 0 20.9233 0 21.2509 0.131427C21.5401 0.247656 21.7946 0.435557 21.9905 0.677309Z" fill="black"/>
<path fill-rule="evenodd" clip-rule="evenodd" d="M22.5812 18.9876C21.7674 19.681 20.143 20.1539 18.272 20.1539C15.9756 20.1539 14.0509 19.4416 13.54 18.4835C13.3574 19.0327 13.3165 19.661 13.3165 20.0624C13.3165 20.0624 13.1961 22.0335 14.5722 23.4044C14.5722 23.2351 14.6056 23.0675 14.6707 22.9112C14.7357 22.7548 14.831 22.6127 14.9511 22.493C15.0713 22.3734 15.2139 22.2784 15.3708 22.2137C15.5278 22.1489 15.696 22.1156 15.8659 22.1156C17.0903 22.1156 17.0889 23.1799 17.0879 24.0436L17.0878 24.1207C17.0878 25.4314 17.8919 26.5551 19.0355 27.029C18.8594 26.668 18.7683 26.2718 18.7688 25.8705C18.7688 24.6203 19.5054 24.1547 20.3615 23.6136C21.0429 23.1832 21.7997 22.7049 22.3213 21.7456C22.6022 21.2288 22.7489 20.6501 22.7479 20.0624C22.7483 19.6978 22.692 19.3351 22.5812 18.9876Z" fill="#FF5D01"/>
<path fill-rule="evenodd" clip-rule="evenodd" d="M22.5812 18.9876C21.7674 19.681 20.143 20.1539 18.272 20.1539C15.9756 20.1539 14.0509 19.4416 13.54 18.4835C13.3574 19.0327 13.3165 19.661 13.3165 20.0624C13.3165 20.0624 13.1961 22.0335 14.5722 23.4044C14.5722 23.2351 14.6056 23.0675 14.6707 22.9112C14.7357 22.7548 14.831 22.6127 14.9511 22.493C15.0713 22.3734 15.2139 22.2784 15.3708 22.2137C15.5278 22.1489 15.696 22.1156 15.8659 22.1156C17.0903 22.1156 17.0889 23.1799 17.0879 24.0436L17.0878 24.1207C17.0878 25.4314 17.8919 26.5551 19.0355 27.029C18.8594 26.668 18.7683 26.2718 18.7688 25.8705C18.7688 24.6203 19.5054 24.1547 20.3615 23.6136C21.0429 23.1832 21.7997 22.7049 22.3213 21.7456C22.6022 21.2288 22.7489 20.6501 22.7479 20.0624C22.7483 19.6978 22.692 19.3351 22.5812 18.9876Z" fill="url(#paint0_linear_331_96)"/>
<path fill-rule="evenodd" clip-rule="evenodd" d="M3.93947 31.0548C6.17175 31.0548 7.34259 31.8506 7.34259 33.3552V34.8213C7.34344 35.5155 7.35525 35.9008 7.3973 36.266L7.40602 36.3389C7.42134 36.4602 7.44005 36.5816 7.46297 36.7134H6.37959C6.32489 36.3645 6.30309 35.9829 6.30309 35.5795C5.65748 36.4843 4.55231 36.9205 2.72475 36.9205C1.07241 36.9205 0 36.3208 0 35.2851C0 34.7944 0.207844 34.3692 0.579938 34.0967C0.973969 33.8132 1.48823 33.6169 2.87789 33.5406L6.29212 33.3444V33.2352C6.29212 32.363 5.41673 31.8506 3.93947 31.8506C2.44027 31.8506 1.53197 32.2759 1.35689 33.0827H0.208125C0.383203 31.8833 1.78383 31.0547 3.93961 31.0547L3.93947 31.0548ZM12.2167 31.0548C14.0988 31.0548 15.3134 31.5563 15.8605 32.4068L14.9742 32.8319C14.4489 32.156 13.65 31.8506 12.1181 31.8506C10.7722 31.8506 10.1483 32.145 10.1483 32.7119C10.1483 33.1589 10.5533 33.3663 11.2755 33.4206L13.9347 33.6278C15.3572 33.7478 15.9152 34.2057 15.9152 35.0997C15.9152 36.1792 15.0069 36.9205 12.7419 36.9205C10.7394 36.9205 9.56841 36.3536 8.90086 35.3505L9.76542 34.8817C10.2579 35.6776 11.2755 36.1137 12.8841 36.1137C14.2082 36.1137 14.8757 35.8083 14.8757 35.1652C14.8757 34.7182 14.613 34.5436 13.7486 34.4782L11.1113 34.2711C9.80916 34.1621 9.11981 33.7042 9.11981 32.7556C9.11981 31.6981 10.2797 31.0548 12.2167 31.0548ZM32.0715 31.0548C34.4024 31.0548 36 32.2322 36 33.9877C36 35.743 34.4024 36.9205 32.0715 36.9205C29.7408 36.9205 28.1431 35.743 28.1431 33.9877C28.1431 32.2322 29.7406 31.0548 32.0715 31.0548ZM19.2047 29.4193V31.2617H21.9405V32.0796H19.2047V34.6091C19.2047 35.5467 19.7191 35.9174 20.671 35.9174C21.1196 35.9174 21.5795 35.852 21.9624 35.7647V36.648C21.6887 36.7679 21.0651 36.866 20.5508 36.866C18.5264 36.866 18.1543 35.7866 18.1543 34.7073V32.0796H16.4362V31.2619H18.1543V29.8445L19.2047 29.4193ZM26.9677 31.0984C27.263 31.0984 27.4601 31.1092 27.6899 31.1638V32.1669C27.4382 32.1232 27.2521 32.1014 26.9567 32.1014C26.0923 32.1014 25.5998 32.3413 25.2167 32.7664C24.7791 33.2245 24.6258 33.8894 24.6258 34.6745V36.7134H23.5863V31.2619H24.5493V32.8426C24.8666 31.7851 25.7967 31.0982 26.9677 31.0982V31.0984ZM6.29212 34.0531L3.08588 34.2492C1.54294 34.3473 1.10517 34.6309 1.10517 35.2633C1.10517 35.852 1.80548 36.1464 3.07491 36.1464C4.9462 36.1464 6.29212 35.4486 6.29212 34.3039V34.0531ZM32.0715 31.9161C30.3535 31.9161 29.2483 32.7229 29.2483 33.9877C29.2483 35.2523 30.3536 36.0592 32.0715 36.0592C33.7787 36.0592 34.8948 35.2523 34.8948 33.9877C34.8948 32.7229 33.7785 31.9161 32.0715 31.9161Z" fill="white"/>
</g>
<defs>
<linearGradient id="paint0_linear_331_96" x1="1306.48" y1="-331.849" x2="895.155" y2="532.348" gradientUnits="userSpaceOnUse">
<stop stop-color="#FF1639"/>
<stop offset="1" stop-color="#FF1639" stop-opacity="0"/>
</linearGradient>
<clipPath id="clip0_331_96">
<rect width="36" height="36.99" fill="white"/>
</clipPath>
</defs>
</svg>
