<svg width="43" height="43" viewBox="0 0 43 43" fill="none" xmlns="http://www.w3.org/2000/svg">
<path d="M28.7517 18.0719C26.9818 10.2646 23.2932 8.18612 22.3523 6.7169C21.9642 6.06967 21.6205 5.39686 21.3234 4.70312C21.2737 5.39684 21.1823 5.83355 20.5928 6.35963C19.4091 7.41498 14.3818 11.5117 13.9587 20.3827C13.5645 28.6538 20.0392 33.7538 20.8944 34.2811C21.5522 34.6048 22.3533 34.288 22.7441 33.9908C25.8651 31.8489 30.1295 26.1383 28.755 18.0719" fill="#10AA50"/>
<path d="M21.5915 29.8767C21.4286 31.9239 21.3118 33.1135 20.8979 34.2834C20.8979 34.2834 21.1696 36.2323 21.3604 38.2968H22.0354C22.1965 36.843 22.4423 35.3998 22.7718 33.9746C21.8979 33.5446 21.6251 31.6731 21.5915 29.8767Z" fill="#B8C4C2"/>
<path d="M22.7707 33.9758C21.8875 33.5678 21.632 31.6569 21.5927 29.8767C21.8111 26.9401 21.8747 23.9941 21.7835 21.0508C21.7372 19.5065 21.8054 6.74693 21.4031 4.87878C21.6783 5.5115 21.9954 6.12516 22.3523 6.71569C23.2932 8.18609 26.983 10.2645 28.7517 18.0719C30.1296 26.1245 25.8883 31.82 22.7707 33.9758Z" fill="#12924F"/>
</svg>
