<svg width="30" height="37" viewBox="0 0 30 37" fill="none" xmlns="http://www.w3.org/2000/svg">
<g clip-path="url(#clip0_378_2)">
<path d="M29.8023 27.5997L17.3437 1.14231C17.1889 0.816763 16.949 0.539128 16.6493 0.338779C16.3496 0.138429 16.0014 0.0228188 15.6414 0.00418075C15.2807 -0.01999 14.9203 0.0551958 14.5993 0.221561C14.2784 0.387927 14.0092 0.639103 13.8211 0.947775L0.308538 22.8336C0.103074 23.1641 -0.00392786 23.5462 7.79728e-05 23.9353C0.00408381 24.3245 0.118931 24.7044 0.331156 25.0305L6.93748 35.2611C7.18742 35.6451 7.55481 35.9381 7.98486 36.0963C8.41491 36.2544 8.88457 36.2693 9.32377 36.1387L28.4955 30.4678C28.7842 30.3834 29.0514 30.238 29.279 30.0414C29.5067 29.8449 29.6895 29.6018 29.8151 29.3285C29.9389 29.0566 30.002 28.7611 29.9999 28.4623C29.9979 28.1636 29.9308 27.8689 29.8032 27.5988L29.8023 27.5997ZM27.013 28.7345L10.7447 33.545C10.2484 33.6927 9.77201 33.2625 9.87526 32.7616L15.6875 4.93145C15.7962 4.41078 16.5152 4.32828 16.7426 4.81016L27.502 27.6586C27.5496 27.7604 27.5745 27.8713 27.5751 27.9836C27.5756 28.096 27.5518 28.2072 27.5052 28.3094C27.4586 28.4117 27.3905 28.5026 27.3053 28.576C27.2202 28.6494 27.1202 28.7034 27.0122 28.7343L27.013 28.7345Z" fill="black"/>
</g>
<defs>
<clipPath id="clip0_378_2">
<rect width="30" height="36.3281" fill="white"/>
</clipPath>
</defs>
</svg>
