<svg width="36" height="37" viewBox="0 0 36 37" fill="none" xmlns="http://www.w3.org/2000/svg">
<path d="M32.274 2.75H3.726C2.91083 2.75 2.25 3.41083 2.25 4.226V32.774C2.25 33.5892 2.91083 34.25 3.726 34.25H32.274C33.0892 34.25 33.75 33.5892 33.75 32.774V4.226C33.75 3.41083 33.0892 2.75 32.274 2.75Z" fill="#3178C6"/>
<path fill-rule="evenodd" clip-rule="evenodd" d="M20.5256 27.2289V30.6804C21.1527 30.9899 21.821 31.2077 22.5101 31.3272C23.3064 31.4742 24.1146 31.5466 24.9243 31.5432C25.7135 31.547 26.5009 31.4674 27.2733 31.3059C27.9669 31.1657 28.6286 30.8987 29.2252 30.5184C29.7791 30.1608 30.2356 29.6715 30.5538 29.0941C31.1238 27.8986 31.199 26.5265 30.7631 25.2759C30.5791 24.8082 30.3051 24.3812 29.9565 24.0192C29.5823 23.6343 29.1572 23.3024 28.6931 23.0326C28.1588 22.7197 27.6036 22.4438 27.0315 22.2069C26.5815 22.0201 26.1765 21.8386 25.8165 21.6624C25.4967 21.5093 25.1907 21.329 24.9018 21.1235C24.6756 20.9649 24.4791 20.7676 24.3213 20.5407C24.185 20.3348 24.1141 20.0924 24.1177 19.8455C24.1147 19.6182 24.178 19.395 24.3 19.2031C24.4324 19.0023 24.609 18.8345 24.8163 18.7126C25.0698 18.5634 25.3455 18.4559 25.6331 18.3942C25.9861 18.3158 26.347 18.2781 26.7086 18.2817C27.0127 18.2828 27.3164 18.3046 27.6176 18.347C27.9428 18.391 28.2646 18.4575 28.5806 18.5461C28.902 18.6352 29.2164 18.748 29.5211 18.8836C29.8168 19.0154 30.0996 19.1744 30.366 19.3584V16.1375C29.8115 15.9277 29.2364 15.7769 28.6503 15.6875C27.9426 15.5845 27.228 15.536 26.5128 15.5424C25.7311 15.5382 24.9516 15.6269 24.1908 15.8067C23.5032 15.9639 22.8493 16.2432 22.2603 16.6314C21.7132 16.9958 21.2615 17.4862 20.943 18.0612C20.6054 18.6999 20.4384 19.4148 20.4581 20.1369C20.4332 21.0917 20.7477 22.0245 21.3457 22.7694C22.0794 23.5952 23.0046 24.2284 24.0401 24.6132C24.5126 24.8082 24.9532 24.9991 25.362 25.1859C25.7307 25.35 26.0852 25.5445 26.4217 25.7675C26.6931 25.944 26.9315 26.1668 27.126 26.4256C27.297 26.6604 27.3877 26.944 27.3847 27.2345C27.3863 27.4521 27.3304 27.6663 27.2227 27.8555C27.1031 28.0588 26.9349 28.2292 26.7333 28.3516C26.4811 28.5054 26.2051 28.6164 25.9166 28.6801C25.5408 28.7641 25.1564 28.8038 24.7713 28.7982C24.0157 28.7969 23.2661 28.6636 22.5562 28.4045C21.8146 28.1369 21.1269 27.7387 20.5256 27.2289ZM14.7273 18.6361H19.2273V15.7932H6.68021V18.6361H11.16V31.2969H14.7273V18.6361Z" fill="white"/>
</svg>
