<svg width="35" height="21" viewBox="0 0 35 21" fill="none" xmlns="http://www.w3.org/2000/svg">
<g clip-path="url(#clip0_331_93)">
<path d="M17.5 0C12.8334 0 9.91662 2.32732 8.75 6.98182C10.5 4.6545 12.5416 3.78177 14.875 4.36364C16.2062 4.69555 17.1578 5.65895 18.2111 6.72518C19.9269 8.46232 21.9126 10.4727 26.25 10.4727C30.9166 10.4727 33.8334 8.14541 35 3.49091C33.25 5.81823 31.2084 6.69095 28.875 6.10909C27.5438 5.77718 26.5922 4.81377 25.5389 3.74755C23.8231 2.01041 21.8374 0 17.5 0ZM8.75 10.4727C4.08338 10.4727 1.16662 12.8 0 17.4545C1.75 15.1272 3.79162 14.2545 6.125 14.8364C7.45623 15.1683 8.40779 16.1317 9.46107 17.1979C11.1769 18.935 13.1626 20.9455 17.5 20.9455C22.1666 20.9455 25.0834 18.6181 26.25 13.9636C24.5 16.291 22.4584 17.1637 20.125 16.5818C18.7938 16.2499 17.8422 15.2865 16.7889 14.2203C15.0731 12.4831 13.0874 10.4727 8.75 10.4727Z" fill="url(#paint0_linear_331_93)"/>
</g>
<defs>
<linearGradient id="paint0_linear_331_93" x1="-97.23" y1="670.254" x2="2921.66" y2="2415.43" gradientUnits="userSpaceOnUse">
<stop stop-color="#2298BD"/>
<stop offset="1" stop-color="#0ED7B5"/>
</linearGradient>
<clipPath id="clip0_331_93">
<rect width="35" height="21" fill="white"/>
</clipPath>
</defs>
</svg>
